<?xml version="1.0" encoding="utf-8"?>
<!-- Generator: Adobe Illustrator 16.0.4, SVG Export Plug-In . SVG Version: 6.00 Build 0)  -->
<!DOCTYPE svg PUBLIC "-//W3C//DTD SVG 1.1//EN" "http://www.w3.org/Graphics/SVG/1.1/DTD/svg11.dtd">
<svg version="1.1" id="Capa_1" xmlns="http://www.w3.org/2000/svg" xmlns:xlink="http://www.w3.org/1999/xlink" x="0px" y="0px"
	 width="612px" height="792px" viewBox="0 0 612 792" enable-background="new 0 0 612 792" xml:space="preserve">
<g>
	<path fill="#7E7E7E" d="M566.957,612.147c-7.223-44.92-22.096-102.785-51.926-123.348c-20.37-14.045-91.441-52.018-121.79-68.229
		l-0.525-0.28c-3.47-1.854-7.705-1.482-10.8,0.946c-15.897,12.481-33.313,20.894-51.762,25.002c-3.259,0.725-5.934,3.04-7.118,6.163
		L306,497.307l-17.036-44.904c-1.185-3.121-3.859-5.437-7.119-6.163c-18.448-4.109-35.864-12.521-51.762-25.002
		c-3.095-2.429-7.331-2.8-10.8-0.946l-0.525,0.28c-30.349,16.213-101.42,54.184-121.79,68.229
		c-29.831,20.562-44.703,78.428-51.927,123.348c-0.264,1.642-0.11,3.32,0.443,4.889C46.71,620.497,78.086,701.583,306,702
		c227.913-0.417,259.289-81.503,260.515-84.964C567.069,615.47,567.222,613.789,566.957,612.147z M454.193,579.487h-89.851v-18.923
		h89.851V579.487z"/>
	<path fill="#7E7E7E" d="M306,435.121c38.652,0,139.756-52.434,139.756-172.553c0-16.983-0.415-33.389-1.813-48.893
		c-2.299-30.515-8.549-57.557-24.112-78.283C400.07,107.474,365.623,90.333,306,90c-59.623,0.333-94.07,17.474-113.832,45.395
		c-15.564,20.725-21.814,47.768-24.112,78.282c-1.398,15.503-1.813,31.908-1.813,48.894
		C166.245,382.687,267.348,435.121,306,435.121z M395.735,262.537c1.753,2.687,2.989,8.596,3.001,12.221
		c0.037,8.218-1.562,22.808-12.683,28.199c-5.261,2.546-13.199,4.067-21.236,4.067c-15.287,0-27.439-5.086-32.507-13.608
		c-10.929-18.361-7.276-29.003-7.246-29.088c0.285-0.704,3.625-6.916,33.072-8.631c5.09-0.296,9.392-0.439,13.153-0.439
		C387.688,255.259,392.8,258.046,395.735,262.537z M306,145.689c14.193,0.191,28.453,2.682,44.44,7.521
		c-4.122,10.416-6.188,15.625-10.31,26.039c-12.623-3.567-23.423-5.42-34.131-5.604c-10.708,0.184-21.508,2.038-34.131,5.604
		c-4.124-10.414-6.188-15.623-10.31-26.039C277.547,148.373,291.807,145.882,306,145.689z M306,210.999
		c45.225,0.59,69.13,20.967,83.647,33.706c-6.115-0.578-12.545-0.872-19.25-0.872c-5.666,0-11.519,0.214-17.392,0.636l-1.028,0.073
		c-11.971,0.845-18.565,1.312-26.581,4.903c-1.622,0.726-3.423,1.6-5.36,2.594c-2.754,1.419-6.848,3.005-8.941,3.466
		c-0.897,0.198-2.744,0.683-5.097,0.683c-2.352,0-4.199-0.483-5.097-0.683c-2.093-0.462-6.188-2.048-8.94-3.466
		c-1.936-0.994-3.739-1.868-5.36-2.594c-8.015-3.59-14.61-4.056-26.58-4.903l-1.029-0.073c-5.872-0.422-11.724-0.636-17.391-0.636
		c-6.705,0-13.132,0.294-19.25,0.872C236.87,231.964,260.775,211.589,306,210.999z M216.267,262.537
		c2.936-4.491,8.048-7.278,24.447-7.278c3.76,0,8.062,0.144,13.154,0.439c29.445,1.714,32.785,7.926,33.072,8.631
		c0.032,0.086,3.683,10.728-7.246,29.089c-5.069,8.522-17.22,13.608-32.507,13.608c-8.038,0-15.975-1.521-21.236-4.068
		c-11.12-5.391-12.72-19.981-12.683-28.199C213.277,271.133,214.513,265.224,216.267,262.537z M187.297,236.162
		c1.187,2.594,5.189,10.575,11.424,15.217c-1.019,1.372-1.755,3.11-1.883,5.303c-0.066,1.176-0.026,3.231,0.018,5.065l0.005,0.25
		c0.025,1.046,0.044,1.983,0.034,2.525c-0.105,4.316,1.619,6.177,2.76,7.407c0.295,0.326,0.509,0.559,0.632,0.767
		c0.392,0.658,0.672,1.495,0.836,2.489c4.339,26.34,5.4,30.888,17.337,37.173c5.535,2.916,16.763,4.873,27.942,4.873
		c8.715,0,21.319-1.153,31.863-6.656c15.653-8.176,21.357-35.803,21.594-36.974c0.122-0.865,1.34-2.147,5.237-2.147h1.811
		c3.898,0,5.115,1.281,5.237,2.147c0.236,1.171,5.94,28.798,21.594,36.974c10.544,5.503,23.147,6.656,31.862,6.656
		c11.18,0,22.408-1.957,27.942-4.873c11.937-6.285,12.998-10.833,17.337-37.173c0.164-0.993,0.444-1.831,0.837-2.489
		c0.122-0.206,0.336-0.441,0.632-0.767c1.141-1.23,2.865-3.093,2.76-7.407c-0.013-0.544,0.009-1.48,0.033-2.525l0.005-0.25
		c0.042-1.834,0.085-3.889,0.018-5.065c-0.127-2.193-0.864-3.931-1.883-5.303c6.234-4.642,10.239-12.624,11.424-15.217
		c0.333,8.739,0.454,17.585,0.454,26.407c0,59.52-26.283,96.398-48.33,116.854c-26.699,24.772-60.107,35.062-70.828,35.062
		s-44.129-10.29-70.828-35.062c-22.047-20.456-48.33-57.335-48.33-116.854C186.844,253.747,186.965,244.901,187.297,236.162z"/>
</g>
</svg>
